<?xml version="1.0" encoding="iso-8859-1"?>
<!-- Uploaded to: SVG Repo, www.svgrepo.com, Generator: SVG Repo Mixer Tools -->
<svg fill="#000000" height="17px" width="17px" version="1.1" id="Layer_1" xmlns="http://www.w3.org/2000/svg" xmlns:xlink="http://www.w3.org/1999/xlink" 
	 viewBox="0 0 508.027 508.027" xml:space="preserve" fill="#E53E3E">
<g>
	<g>
		<path d="M507.013,488.713l-25.1-63.4c-2.1-5.4-7.3-8.9-13.1-8.9h-29.4l-30.2-220.5c-5.2-40-39.4-70.1-79.8-70.1h-150.9
			c-40.3,0-74.6,30.1-79.7,70l-30.2,220.5h-29.4c-5.8,0-11,3.5-13.1,8.9l-25.1,63.5c-3.7,9.3,3.2,19.3,13.1,19.3h479.8
			C503.813,508.013,510.713,498.013,507.013,488.713z M126.813,199.513c3.3-26,25.6-45.5,51.8-45.5h150.9
			c26.2,0,48.4,19.6,51.8,45.6l29.7,216.7h-313.9L126.813,199.513z M34.913,479.813l13.9-35.2h410.4l13.9,35.2H34.913z"/>
	</g>
</g>
<g>
	<g>
		<polygon points="232.913,205.313 232.913,234.913 239.813,320.913 268.013,320.913 275.113,234.913 275.113,205.313 		"/>
	</g>
</g>
<g>
	<g>
		<circle cx="254.013" cy="358.013" r="21"/>
	</g>
</g>
</svg>